<svg width="40" height="40" viewBox="0 0 40 40" fill="none" xmlns="http://www.w3.org/2000/svg">
<rect width="40" height="40" rx="8" fill="#5D80FE"/>
<path d="M19.4629 12.1579C19.7906 11.9491 20.2096 11.9491 20.5374 12.1579L29.4629 17.8435C29.9287 18.1402 30.5468 18.0031 30.8435 17.5373C31.1403 17.0715 31.0032 16.4534 30.5374 16.1566L21.6119 10.4711C20.6287 9.84476 19.3716 9.84476 18.3884 10.4711L9.46287 16.1566C8.99706 16.4534 8.85999 17.0715 9.15671 17.5373C9.45343 18.0031 10.0716 18.1402 10.5374 17.8435L19.4629 12.1579Z" fill="white"/>
<path d="M14.0001 20C14.0001 19.4477 13.5524 19 13.0001 19C12.4478 19 12.0001 19.4477 12.0001 20V28H10.0001C9.44784 28 9.00013 28.4477 9.00013 29C9.00013 29.5523 9.44784 30 10.0001 30H30.0001C30.5524 30 31.0001 29.5523 31.0001 29C31.0001 28.4477 30.5524 28 30.0001 28H28.0001V20C28.0001 19.4477 27.5524 19 27.0001 19C26.4478 19 26.0001 19.4477 26.0001 20V28H24.0001L24.0001 20C24.0001 19.4477 23.5524 19 23.0001 19C22.4478 19 22.0001 19.4477 22.0001 20L22.0001 28H18.0001V20C18.0001 19.4477 17.5524 19 17.0001 19C16.4478 19 16.0001 19.4477 16.0001 20L16.0001 28H14.0001V20Z" fill="white"/>
<path d="M20.0001 14.5001C19.1717 14.5001 18.5001 15.1716 18.5001 16.0001C18.5001 16.8285 19.1717 17.5001 20.0001 17.5001C20.8286 17.5001 21.5001 16.8285 21.5001 16.0001C21.5001 15.1716 20.8286 14.5001 20.0001 14.5001Z" fill="white"/>
</svg>
