<svg width="56" height="60" viewBox="0 0 56 60" fill="none" xmlns="http://www.w3.org/2000/svg">
    <path d="M26.926 13.195a1.888 1.888 0 0 1 2.149 0l17.85 12.184c.932.636 2.169.342 2.762-.656.594-.998.32-2.323-.612-2.959L31.224 9.581a5.665 5.665 0 0 0-6.447 0L6.926 21.764c-.932.636-1.206 1.96-.613 2.959.594.998 1.83 1.292 2.762.656l17.85-12.184zM16 30c0-1.183-.895-2.143-2-2.143-1.104 0-2 .96-2 2.143v17.143H8c-1.104 0-2 .96-2 2.143 0 1.183.896 2.143 2 2.143h40c1.105 0 2-.96 2-2.143 0-1.184-.895-2.143-2-2.143h-4V30c0-1.183-.895-2.143-2-2.143-1.104 0-2 .96-2 2.143v17.143h-4V30c0-1.183-.895-2.143-2-2.143-1.104 0-2 .96-2 2.143v17.143h-8V30c0-1.183-.895-2.143-2-2.143-1.104 0-2 .96-2 2.143v17.143h-4V30z" fill="#5D80FE"/>
    <path d="M28 18.214c-1.657 0-3 1.44-3 3.215s1.343 3.214 3 3.214 3-1.44 3-3.214c0-1.776-1.343-3.215-3-3.215z" fill="#5D80FE"/>
</svg>
