<svg
    xmlns="http://www.w3.org/2000/svg"
    viewBox="0 0 16 16"
    id="vector">
    <path
        id="path"
        d="M 8 16 C 12.377 16 16 12.369 16 8 C 16 3.623 12.369 0 7.992 0 C 3.623 0 0 3.623 0 8 C 0 12.369 3.631 16 8 16 Z M 8 14.667 C 4.298 14.667 1.341 11.702 1.341 8 C 1.341 4.298 4.29 1.333 7.992 1.333 C 11.694 1.333 14.659 4.298 14.667 8 C 14.675 11.702 11.702 14.667 8 14.667 Z M 7.835 9.623 C 8.227 9.623 8.471 9.373 8.471 9.067 L 8.471 8.973 C 8.471 8.533 8.722 8.251 9.271 7.89 C 10.031 7.388 10.572 6.933 10.572 5.992 C 10.572 4.69 9.412 3.984 8.078 3.984 C 6.729 3.984 5.843 4.627 5.631 5.349 C 5.592 5.474 5.569 5.6 5.569 5.733 C 5.569 6.086 5.843 6.274 6.102 6.274 C 6.369 6.274 6.541 6.149 6.682 5.961 L 6.824 5.773 C 7.098 5.318 7.506 5.051 8.031 5.051 C 8.745 5.051 9.208 5.459 9.208 6.055 C 9.208 6.588 8.878 6.847 8.196 7.325 C 7.631 7.718 7.208 8.133 7.208 8.902 L 7.208 9.004 C 7.208 9.412 7.435 9.623 7.835 9.623 Z M 7.82 11.961 C 8.274 11.961 8.667 11.6 8.667 11.145 C 8.667 10.69 8.282 10.329 7.82 10.329 C 7.357 10.329 6.973 10.698 6.973 11.145 C 6.973 11.592 7.365 11.961 7.82 11.961 Z"
        fill="#5d80fe"/>
</svg>
