<svg width="22" height="21" viewBox="0 0 22 21" fill="none" xmlns="http://www.w3.org/2000/svg">
    <path d="M10.597 4.618a.75.75 0 0 1 .806 0l6.694 4.265a.75.75 0 1 0 .806-1.266l-6.694-4.264a2.25 2.25 0 0 0-2.418 0L3.097 7.617a.75.75 0 0 0 .806 1.266l6.694-4.265zM6.5 10.5a.75.75 0 0 0-1.5 0v6H3.5a.75.75 0 0 0 0 1.5h15a.75.75 0 0 0 0-1.5H17v-6a.75.75 0 0 0-1.5 0v6H14v-6a.75.75 0 0 0-1.5 0v6h-3v-6a.75.75 0 0 0-1.5 0v6H6.5v-6z" fill="#5D80FE"/>
    <path d="M11 6.375a1.125 1.125 0 1 0 0 2.25 1.125 1.125 0 0 0 0-2.25z" fill="#5D80FE"/>
</svg>
