<svg width="40" height="40" viewBox="0 0 40 40" fill="none" xmlns="http://www.w3.org/2000/svg">
<rect width="40" height="40" rx="8" fill="#BCC4CC"/>
<path d="M25.5903 10C27.8191 10 28.6273 10.2321 29.4421 10.6678C30.2569 11.1036 30.8964 11.7431 31.3322 12.5579C31.7679 13.3727 32 14.1809 32 16.4097V23.5903C32 25.8191 31.7679 26.6273 31.3322 27.4421C30.8964 28.2569 30.2569 28.8964 29.4421 29.3322C28.6273 29.7679 27.8191 30 25.5903 30H14.4097C12.1809 30 11.3727 29.7679 10.5579 29.3322C9.74307 28.8964 9.1036 28.2569 8.66783 27.4421C8.23206 26.6273 8 25.8191 8 23.5903V16.4097C8 14.1809 8.23206 13.3727 8.66783 12.5579C9.1036 11.7431 9.74307 11.1036 10.5579 10.6678C11.3727 10.2321 12.1809 10 14.4097 10H25.5903ZM29.999 19H9.999L10 24.1542C10 25.4915 10.1392 25.9764 10.4007 26.4653C10.6622 26.9542 11.0458 27.3378 11.5347 27.5993C11.9931 27.8444 12.4479 27.9821 13.6049 27.9984L13.8458 28H26.1542C27.4915 28 27.9764 27.8608 28.4653 27.5993C28.9542 27.3378 29.3378 26.9542 29.5993 26.4653C29.8444 26.0069 29.9821 25.5521 29.9984 24.3951L30 24.1542L29.999 19ZM14.7454 22C15.1583 22 15.3255 22.0464 15.4884 22.1336C15.6514 22.2207 15.7793 22.3486 15.8664 22.5116C15.9536 22.6745 16 22.8417 16 23.2546V23.7454C16 24.1583 15.9536 24.3255 15.8664 24.4884C15.7793 24.6514 15.6514 24.7793 15.4884 24.8664C15.3255 24.9536 15.1583 25 14.7454 25H14.2546C13.8417 25 13.6745 24.9536 13.5116 24.8664C13.3486 24.7793 13.2207 24.6514 13.1336 24.4884C13.0464 24.3255 13 24.1583 13 23.7454V23.2546C13 22.8417 13.0464 22.6745 13.1336 22.5116C13.2207 22.3486 13.3486 22.2207 13.5116 22.1336C13.6745 22.0464 13.8417 22 14.2546 22H14.7454ZM26.1542 12H13.8458C12.5085 12 12.0236 12.1392 11.5347 12.4007C11.0458 12.6622 10.6622 13.0458 10.4007 13.5347C10.1556 13.9931 10.0179 14.4479 10.0016 15.6049L10 15.8458L9.999 16H29.999L30 15.8458C30 14.5085 29.8608 14.0236 29.5993 13.5347C29.3378 13.0458 28.9542 12.6622 28.4653 12.4007C28.0069 12.1556 27.5521 12.0179 26.3951 12.0016L26.1542 12Z" fill="white"/>
</svg>
