<svg width="24" height="25" viewBox="0 0 24 25" fill="none" xmlns="http://www.w3.org/2000/svg">
    <path d="M17.073 2.502a.785.785 0 0 0-.598.213l-.003.001a.803.803 0 0 0-.052 1.108 13.513 13.513 0 0 1 .26 17.098.806.806 0 0 0 .084 1.11c.338.297.864.267 1.144-.086a15.098 15.098 0 0 0-.266-19.15.82.82 0 0 0-.569-.294zM14.16 5.24a.793.793 0 0 0-.606.212c-.297.279-.348.744-.092 1.061a9.534 9.534 0 0 1 .181 11.808.789.789 0 0 0 .12 1.062.808.808 0 0 0 1.182-.134 11.114 11.114 0 0 0 2.256-6.716 11.12 11.12 0 0 0-2.47-6.992.81.81 0 0 0-.57-.301zm-2.917 2.742a.807.807 0 0 0-.617.215l-.005.004a.788.788 0 0 0-.1 1.04 5.55 5.55 0 0 1 .555 5.64L3.827 8.686a.585.585 0 0 0-.888.158 7.101 7.101 0 0 0-.036 6.998c.25.448.865.53 1.24.178v-.003a.787.787 0 0 0 .157-.954 5.508 5.508 0 0 1-.7-2.69c0-.54.083-1.06.228-1.553l7.11 6.083c.26.223.65.167.854-.11a7.137 7.137 0 0 0 1.408-4.259 7.137 7.137 0 0 0-1.39-4.236.78.78 0 0 0-.568-.315z" fill="#7C8894"/>
</svg>
