<svg width="40" height="40" viewBox="0 0 40 40" fill="none" xmlns="http://www.w3.org/2000/svg">
<path d="M20 8.57143C20.6312 8.57143 21.1428 9.0831 21.1428 9.71428V18.8571H30.2857C30.9169 18.8571 31.4286 19.3688 31.4286 20C31.4286 20.6312 30.9169 21.1429 30.2857 21.1429H21.1428V30.2857C21.1428 30.9169 20.6312 31.4286 20 31.4286C19.3688 31.4286 18.8571 30.9169 18.8571 30.2857V21.1429H9.71427C9.08309 21.1429 8.57141 20.6312 8.57141 20C8.57141 19.3688 9.08309 18.8571 9.71427 18.8571H18.8571V9.71428C18.8571 9.0831 19.3688 8.57143 20 8.57143Z" fill="#5D80FE"/>
</svg>
