<svg width="28" height="28" viewBox="0 0 28 28" fill="none" xmlns="http://www.w3.org/2000/svg">
<path d="M21 11.6667C22.2834 11.6667 23.3334 12.7167 23.3334 14C23.3334 15.2833 22.2834 16.3333 21 16.3333C19.7167 16.3333 18.6667 15.2833 18.6667 14C18.6667 12.7167 19.7167 11.6667 21 11.6667ZM14 16.3333C12.7167 16.3333 11.6667 15.2833 11.6667 14C11.6667 12.7167 12.7167 11.6667 14 11.6667C15.2834 11.6667 16.3334 12.7167 16.3334 14C16.3334 15.2833 15.2834 16.3333 14 16.3333ZM7.00002 16.3333C5.71669 16.3333 4.66669 15.2833 4.66669 14C4.66669 12.7167 5.71669 11.6667 7.00002 11.6667C8.28335 11.6667 9.33335 12.7167 9.33335 14C9.33335 15.2833 8.28335 16.3333 7.00002 16.3333Z" fill="#5D80FE"/>
</svg>
